<?xml version="1.0" encoding="utf-8"?>
<!-- Generator: Adobe Illustrator 18.1.1, SVG Export Plug-In . SVG Version: 6.00 Build 0)  -->
<svg version="1.1" id="Layer_1" xmlns="http://www.w3.org/2000/svg" xmlns:xlink="http://www.w3.org/1999/xlink" x="0px" y="0px"
	 viewBox="0 260.6 768 502.6" enable-background="new 0 260.6 768 502.6" xml:space="preserve">
<title>Bee</title>
<path fill="#FFFFFF" d="M767.2,339.6l-1.4-9.4L481.9,399l40.2-32.3v-51.4h-17.3v42.9l-49.4,39.8c-1.5-2.5-3.1-5-4.8-7.3
	c0.4,0,0.9-0.1,1.3-0.2c15.5-3.8,23.9-22,19.1-41.4c-3.2-13-11.4-22.8-21.1-26.7l0,0l-1-0.5l39-43.9H522v-17.3h-42.2l-47.4,53.4
	L384,290.7l-48.4,23.4l-47.4-53.4h-42.2V278h34.4l39,43.9l-1,0.5l0,0c-9.7,3.9-17.9,13.7-21.1,26.7c-4.7,19.4,3.7,37.6,19.1,41.4
	c0.4,0,0.9,0.2,1.3,0.2c-1.7,2.4-3.4,4.8-4.8,7.3l-49.4-39.7v-42.9h-17.3v51.3l40.2,32.4L2.2,330.2l-1.4,9.4
	c-0.1,0.9-12.5,91.8,65.9,118.7c4,10,20.1,43.6,61.4,68.1c16,9.8,34.3,15,53.1,15.1c25.1,0,52.6-9.1,85.3-27.4
	c16.7-9.3,28.3-15.9,36.5-20.5l-65.3,68.6V628H255v-59l33.5-35.1c-6.6,23.9-9.9,56.2-3.2,98c3.1,20.9,9.5,41.1,19,60v1.7h0.9
	c28.7,54.4,74.1,68.2,76.6,69l2.5,0.7l2.5-0.7c3.2-0.9,79.5-24,96.6-130.6c6.7-41.8,3.4-74.1-3.2-98.1l33.5,35.1v59H531v-65.8
	l-65.1-68.3l36.1,20.3c32.6,18.3,60.2,27.4,85.3,27.4c18.7,0,37.1-5.3,53.1-15.1c41.4-24.5,57.3-58.1,61.4-68.1
	C779.8,431.3,767.3,340.5,767.2,339.6z M468.3,610.8H299.9c-1.6-16.1-1.4-32.2,0.6-48.3h167.3C469.7,578.6,469.9,594.7,468.3,610.8z
	 M303.7,545.2c6.6-28.6,18.4-45,23.3-50.7h114.4c5,5.7,16.8,22,23.4,50.7H303.7z M384.2,374.5c35.9,0.1,65,29.2,65.1,65.1
	c0,6.6-5,24.5-9.3,37.6H328.2c-4.1-13-9.2-31-9.2-37.6c0.1-35.9,29.1-64.9,65-65.1L384.2,374.5z M447.6,373.7
	c-5,1.3-12.5-4.7-15.1-15.1c-1.3-4.8-1-9.9,0.7-14.5c0.9-2.7,3-4.9,5.7-5.9c5-1.3,12.5,4.7,15.1,15.1
	C456.5,363.7,452.6,372.4,447.6,373.7L447.6,373.7z M422.7,328.5c-2.4,2.6-4.3,5.6-5.6,8.8c-3.1,8.1-3.7,16.9-1.5,25.3l0,0
	c0,0.3,0.2,0.6,0.3,0.9c-20.3-8.5-43.2-8.5-63.5,0c0-0.3,0.2-0.6,0.3-0.9l0,0c2.2-8.4,1.6-17.2-1.5-25.3c-1.3-3.2-3.2-6.2-5.6-8.8
	l38.5-18.6L422.7,328.5z M314.3,353.2c2.3-9.6,8.7-15.3,13.7-15.3c0.5,0,0.9,0.1,1.4,0.2c2.7,1,4.8,3.1,5.7,5.9
	c1.7,4.7,2,9.7,0.7,14.5c-2.5,10.5-10,16.4-15.1,15.1C315.8,372.2,311.7,363.8,314.3,353.2L314.3,353.2z M71.2,441.4
	C45,432.1,28,413.1,20.8,384.9c-2.7-10.9-3.9-22.1-3.6-33.3L163.5,387C127.2,393.6,94.5,412.8,71.2,441.4z M257.9,499
	c-51.9,29-86.9,32.6-121.1,12.5c-23.2-13.4-41.8-33.5-53.3-57.7c10.9-14.5,59.4-69.5,155.6-46.6l64.1,16.5
	c-1.1,5.3-1.6,10.7-1.6,16.1c0,7.2,3.3,20.3,6.5,31.1C301.9,474.3,288.1,482.1,257.9,499z M384,745.2c-8.6-3.2-37.4-16-59.1-51.5
	h118.2C421.5,729.3,392.7,742.1,384,745.2z M452.3,676.4H315.9c-6.6-15-11.2-30.9-13.7-47.1c0-0.4,0-0.8-0.2-1.2h164
	c0,0.4,0,0.8-0.2,1.2C463.4,645.5,458.9,661.4,452.3,676.4z M631.2,511.5c-34.1,20.2-69.2,16.6-121.1-12.5
	c-30.1-16.8-43.8-24.6-50.2-28.2c3.2-10.9,6.5-24,6.5-31.2c0-5.4-0.5-10.8-1.6-16.1l63.8-16.4c97.3-23.1,145,31.8,155.8,46.6
	C680.2,463.6,665.6,491.1,631.2,511.5L631.2,511.5z M696.9,441.4c-10.5-13.3-23.3-24.6-37.6-33.6c-16.7-10.3-35.2-17.4-54.5-20.8
	l146.1-35.4c0.3,11-0.8,22-3.4,32.8C740.2,412.9,723.2,432,696.9,441.4L696.9,441.4z"/>
</svg>
