<?xml version="1.0" encoding="utf-8"?>
<!-- Generator: Adobe Illustrator 18.1.1, SVG Export Plug-In . SVG Version: 6.00 Build 0)  -->
<svg version="1.1" id="Layer_1" xmlns="http://www.w3.org/2000/svg" xmlns:xlink="http://www.w3.org/1999/xlink" x="0px" y="0px"
	 viewBox="0 448.7 768.1 126.7" enable-background="new 0 448.7 768.1 126.7" xml:space="preserve">
<title>Logo</title>
<path fill="#FFFFFF" d="M475.6,478.3c-19.7,0-28.8,17.4-28.8,33.4c0,20.3,9.1,33.4,28.8,33.4c19.7,0,28.8-17,28.8-33.4
	C504.4,491.5,495.3,478.3,475.6,478.3z M475.6,540.1c-13.1,0-16.4-14.1-16.4-28.4c0-14.3,3.2-28.3,16.4-28.3s16.3,14.1,16.3,28.3
	C491.9,525.8,488.7,540.1,475.6,540.1L475.6,540.1z"/>
<path fill="#FFFFFF" d="M568.1,478.3c-19.7,0-28.8,17.4-28.8,33.4c0,20.3,9.1,33.4,28.8,33.4s28.8-17,28.8-33.4
	C596.8,491.5,587.8,478.3,568.1,478.3z M568.1,540.1c-13.1,0-16.4-14.1-16.4-28.4c0-14.3,3.2-28.3,16.4-28.3s16.3,14.1,16.3,28.3
	C584.4,525.8,581.2,540.1,568.1,540.1L568.1,540.1z"/>
<path fill="#FFFFFF" d="M659.4,533.1v-35.1c0-15.7-12.2-19.8-19.2-19.8c-9.3,0-15.2,5-19.3,10.7h-0.4v-9.2h-19.4v2.6
	c4.7,0,7.7,3.5,7.7,8.2v42.7c0,4.7-2.2,8.2-6.9,8.2v2.6h25.5v-2.6c-4.7,0-6.9-3.5-6.9-8.2v-33.9l0,0c0-7,6.4-14.7,14.4-14.7
	c8.6,0,12.9,6.3,12.9,14.1v34.5c0,4.7-2.2,8.2-6.9,8.2v2.6h25.5v-2.6C661.5,541.3,659.4,537.8,659.4,533.1z"/>
<path fill="#FFFFFF" d="M406.9,540.6c-19.1,0-29.4-21.4-29.4-43.5c0-26.2,12.9-43.4,29-43.4c13.6,0,21.3,13.3,25.7,26h2.7v-29h-2.6
	c-1.2,1.9-3,3.4-5.1,4.2c-6.1-3.9-13.2-6-20.5-6.2c-25.8,0-43.7,21.4-43.7,48.5c0,36.4,22.6,48.7,42.3,48.7c10,0,17.4-3.6,23.9-7.2
	c2.4,1.1,4.4,2.9,5.7,5.2h2.6v-26.4h-2.6C429.1,528.3,421.1,540.6,406.9,540.6z"/>
<polygon fill="#FFFFFF" points="740.3,482.1 744.4,482.1 744.4,494.1 747.1,494.1 747.1,482.1 751.2,482.1 751.2,479.7 740.3,479.7 
	"/>
<path fill="#FFFFFF" d="M764.4,479.7l-3.9,10.7l-3.7-10.7h-3.6v14.3h2.5v-7c0-1.1,0-2.3-0.1-3.6l3.7,10.5h2.3l3.9-10.6
	c0,0.2,0,0.5,0,0.8c0,1.1,0,2,0,2.7v7.1h2.6v-14.4H764.4L764.4,479.7z"/>
<path fill="#FFFFFF" d="M527.6,533.1v-82.4h-20v2.6c4.5-0.1,8.3,3.4,8.4,7.9c0,0.1,0,0.2,0,0.3v71.9l0,0c0,4.7-2.3,8.1-6.9,8.1v2.6
	h25.5v-2.6C529.9,541.3,527.6,537.8,527.6,533.1z"/>
<path fill="#FFFFFF" d="M710.2,482.1c8.6,0,5.9,6.8,4.2,11.6l-12.9,34.5h-0.4l-14-34.3c-2.1-5.2-6.3-11.9,3.1-11.9v-2.4h-25.6v2.5
	c6.8,0.5,7.4,5,10.9,13.5l20,48.7l-6,15.6c-1.4,3.9-3,6.3-4.6,7.2c0.1-0.4,0.1-0.8,0.1-1.1c0-4.3-3.5-7.8-7.8-7.8
	c-4.3,0-7.8,3.5-7.8,7.8l0,0c0,0,0,0,0,0.1s0,0.1,0,0.1c0,0.4,0,0.9,0.1,1.3c0.7,4.8,4.9,8.2,9.7,7.9c9.9,0,13.4-9.6,20.4-27.6
	l11.4-29.4l9.2-22.3c2.6-6.3,4.9-13.9,11.9-13.9v-2.4h-21.7V482.1L710.2,482.1z"/>
<path fill="#FFFFFF" d="M59.8,453.3c7.1,0.4,11,3.9,11,9.6V494H24.3v-31.1c0-5.7,4.2-9.2,11.3-9.6v-2.6H0v2.6
	c7.1,0.4,11.2,3.9,11.2,9.6v68.9c0,5.5-4.1,9.1-11.2,9.5v2.6h35.6v-2.6c-7.1-0.4-11.3-3.9-11.3-9.5v-32.7h46.6v32.7
	c0,5.5-3.9,9.1-11,9.5v2.6h35.3v-2.6c-7.1-0.4-11.2-3.9-11.2-9.5v-68.9c0-5.7,4.1-9.2,11.2-9.6v-2.6H59.8V453.3z"/>
<path fill="#FFFFFF" d="M222.2,478.3c-19.5,0-30.1,17.5-30.1,33.4c0,20.2,12.6,33.3,31,33.3c2.3,0,4.6-0.3,6.8-0.8
	c4.1-1,7.9-2.9,11.2-5.5c1.5-1.1,2.8-2.4,4-3.9c0.8-1,1.6-2.1,2.4-3.3l-1.9-1.3c0,0-1.1,1.1-1.3,1.4c-3.3,3.1-9,8.4-18.8,8.4
	c-14.1,0-20.9-14.1-20.9-27.6v-1.3h43.7v-5.1C248.2,488.8,237.1,478.3,222.2,478.3z M204.8,506.1c1.9-12,8-22.8,16.4-22.8
	c11.7,0,15.7,11.9,15.7,22.8H204.8L204.8,506.1z"/>
<path fill="#FFFFFF" d="M114,465.8c4.2-0.1,7.5-3.6,7.3-7.8c-0.1-4.2-3.6-7.5-7.8-7.3c-4.1,0.1-7.4,3.5-7.3,7.6
	C106.3,462.5,109.8,465.9,114,465.8C114,465.8,114,465.8,114,465.8z"/>
<path fill="#FFFFFF" d="M195,479.7h-21.8v2.4c8.6,0,5.9,6.8,4.2,11.6l-12.9,34.5h-0.4L150,494.1c-2.1-5.2-6.3-11.9,3.1-11.9v-2.4
	h-25.4v2.5c6.8,0.5,7.4,5,10.9,13.5l19.8,48.2h5.1l19.7-47.8c2.6-6.3,4.9-13.9,11.9-13.9L195,479.7L195,479.7z"/>
<path fill="#FFFFFF" d="M119.8,533.1v-53.4h-19.4v2.6c4.7,0,7.7,3.5,7.7,8.2v42.7c0,4.7-2.2,8.2-6.9,8.2v2.6h25.5v-2.6
	C122.1,541.3,119.8,537.8,119.8,533.1z"/>
<path fill="#FFFFFF" d="M342.3,489.4c-9.3,0-15.4,9.1-26.8,27.3l-0.7,1.1l-20.2-27.9c-4-5.5-6.4-11.1-6.4-16.3
	c0-12,7.7-19.8,16.9-19.8c11.2,0,15.2,10.6,16.5,24.6h2.5l5.7-29.8h-2.5c-1.4,2.3-3.4,4.3-5.7,5.6c-3.4-3-8.6-5.6-16.3-5.6
	c-15.2,0-28.4,10.4-28.4,27.2c0,5.7,2.3,11.6,6.6,17.9c-12.9,5.1-23.2,15.4-23.2,29.5c0,14.3,10.4,21.9,24.9,21.9
	c10.5,0,18.2-5.5,25.1-13.8l3.7,5.1c4,5.5,6.7,8.7,14.5,8.7c11.2,0,16.7-10.4,16.7-12.4c-0.1-0.6-0.7-1-1.3-1
	c-0.6,0.1-1.1,0.4-1.4,1c-1.3,1.4-4.8,6.3-8.5,6.3c-2.7,0-5.1-1.6-7.5-4.9l-9-12.4l0.8-1.3c8-12.2,13.4-20.9,17.3-20.9
	c3.5,0,2.6,5.1,8,5.1c4-0.2,7-3.6,6.8-7.5C350.7,492.8,347.4,489.4,342.3,489.4z M287.7,540.2c-8.6,0-15.3-7-15.3-17.6
	c0-9.7,7.1-18.4,15.8-22.4l19.5,27.4C301.3,535.5,294.9,540.2,287.7,540.2L287.7,540.2z"/>
</svg>
